<svg width="37" height="36" viewBox="0 0 37 36" fill="none" xmlns="http://www.w3.org/2000/svg">
<path d="M20.0667 33V26.84H15.1667C13.9067 26.84 13.3467 26.2333 13.3467 25.02V15.2667H18.9467V9.57333H13.3467V2.38667H5.27333V9.57333H0.56V15.2667H5.27333V26.28C5.27333 30.4333 7.60667 33 11.8533 33H20.0667Z" fill="url(#paint0_linear_102_593)"/>
<path d="M16.9333 3L16.9333 9.16L21.8333 9.16C23.0933 9.16 23.6533 9.76667 23.6533 10.98L23.6533 20.7333L18.0533 20.7333L18.0533 26.4267L23.6533 26.4267L23.6533 33.6133L31.7267 33.6133L31.7267 26.4267L36.44 26.4267L36.44 20.7333L31.7267 20.7333L31.7267 9.72C31.7267 5.56667 29.3933 3 25.1467 3L16.9333 3Z" fill="url(#paint1_linear_102_593)"/>
<defs>
<linearGradient id="paint0_linear_102_593" x1="0" y1="0" x2="21.8655" y2="0.161966" gradientUnits="userSpaceOnUse">
<stop stop-color="#73E0A9"/>
<stop offset="1" stop-color="#5B68DF"/>
</linearGradient>
<linearGradient id="paint1_linear_102_593" x1="37" y1="36" x2="15.1345" y2="35.838" gradientUnits="userSpaceOnUse">
<stop stop-color="#73E0A9"/>
<stop offset="1" stop-color="#5B68DF"/>
</linearGradient>
</defs>
</svg>
